<svg xmlns="http://www.w3.org/2000/svg" xmlns:xlink="http://www.w3.org/1999/xlink" width="200" height="159" viewBox="0 0 200 159"><defs><path id="mrifa" d="M304.93 1491.45h-75.86a8.08 8.08 0 0 0-6.6 12.71l18.92 26.92a23.78 23.78 0 0 0 19.43 10.1h44.07v-49.73z"/><path id="mrifb" d="M224.3 1493l8.32 10.03a35.74 35.74 0 0 0 27.57 12.95h44.74v-24.53h-75.86a7.9 7.9 0 0 0-4.76 1.56z"/><path id="mrifc" d="M304.93 1491.45h-52.66l-19.97 26.72 9.1 12.9a23.78 23.78 0 0 0 19.42 10.1h44.07v-49.72z"/><path id="mrifd" d="M253.17 1539.9c2.46.81 5.03 1.28 7.65 1.28h44.07v-49.73h-35.88z"/><path id="mrife" d="M282.74 1541.18h22.2v-49.73h-18.96z"/><path id="mriff" d="M239.13 1509.08a35.79 35.79 0 0 0 21.06 6.86h44.74v-24.5h-52.66z"/><path id="mrifg" d="M261.05 1515.94h43.88v-24.5h-35.88z"/><path id="mrifh" d="M284.38 1515.94h20.55v-24.5h-18.95z"/><path id="mrifi" d="M238.7 1491.45l3.2 3.82a23.73 23.73 0 0 0 18.3 8.58h44.73v-12.4z"/><path id="mrifj" d="M336.76 1491.45h75.87a8.06 8.06 0 0 1 6.6 12.71l-18.93 26.92a23.78 23.78 0 0 1-19.42 10.1H336.8v-49.73z"/><path id="mrifk" d="M336.76 1491.45h52.66l19.97 26.72-9.09 12.9a23.78 23.78 0 0 1-19.42 10.1H336.8v-49.72z"/><path id="mrifl" d="M388.52 1539.9a24.19 24.19 0 0 1-7.64 1.28H336.8v-49.73h35.89z"/><path id="mrifm" d="M358.96 1541.18h-22.2v-49.73h18.96z"/><path id="mrifn" d="M336.76 1491.45v24.5h44.74a35.74 35.74 0 0 0 27.58-12.96l8.3-10.02a8.05 8.05 0 0 0-4.75-1.52h-75.87z"/><path id="mrifo" d="M381.5 1515.94c7.69 0 15.02-2.42 21.07-6.86l-13.15-17.63h-52.66v24.5z"/><path id="mrifp" d="M336.76 1515.94h43.88l-8-24.5h-35.88z"/><path id="mrifq" d="M357.32 1515.94l-1.6-24.5h-18.96v24.5z"/><path id="mrifr" d="M403 1491.45l-3.2 3.82a23.73 23.73 0 0 1-18.3 8.58h-44.74v-12.4z"/><path id="mrifs" d="M296 1450.33v-13.5a4.27 4.27 0 0 1 6.87-3.39l13.22 10.15z"/><path id="mrift" d="M304.66 1434.85l-1.83-1.4a4.27 4.27 0 0 0-6.87 3.39v13.5l8.2-2.74v-10.76c.03-.74.23-1.4.5-2z"/><path id="mrifu" d="M345.7 1450.33v-13.5a4.27 4.27 0 0 0-6.87-3.39l-13.22 10.15z"/><path id="mrifv" d="M345.7 1436.84a4.27 4.27 0 0 0-6.87-3.4l-13.22 10.15 9.08 3.04 11-8.47v-1.32z"/><path id="mrifw" d="M337.11 1441.75h-32.53a8.6 8.6 0 0 0-8.58 8.58v32.53a8.6 8.6 0 0 0 8.58 8.59h32.53a8.6 8.6 0 0 0 8.58-8.59v-32.53a8.6 8.6 0 0 0-8.58-8.58z"/><path id="mrifx" d="M308.4 1482.86v-32.53a8.6 8.6 0 0 1 8.59-8.58h-12.45a8.6 8.6 0 0 0-8.58 8.58v32.53a8.6 8.6 0 0 0 8.58 8.59H317a8.6 8.6 0 0 1-8.59-8.59z"/><path id="mrify" d="M337.11 1491.45h-32.53a8.6 8.6 0 0 0-8.58 8.58v32.53a8.6 8.6 0 0 0 8.58 8.58h32.53a8.6 8.6 0 0 0 8.58-8.58v-32.53a8.6 8.6 0 0 0-8.58-8.58z"/><path id="mrifz" d="M308.4 1532.6v-32.57a8.6 8.6 0 0 1 8.59-8.58h-12.45a8.6 8.6 0 0 0-8.58 8.58v32.53a8.6 8.6 0 0 0 8.58 8.58H317a8.55 8.55 0 0 1-8.59-8.54z"/><path id="mrifA" d="M337.11 1541.18h-32.53a8.6 8.6 0 0 0-8.58 8.58v32.53a8.6 8.6 0 0 0 8.58 8.58h32.53a8.6 8.6 0 0 0 8.58-8.58v-32.53a8.6 8.6 0 0 0-8.58-8.58z"/><path id="mrifB" d="M308.4 1582.3v-32.54a8.6 8.6 0 0 1 8.59-8.58h-12.45a8.6 8.6 0 0 0-8.58 8.58v32.53a8.6 8.6 0 0 0 8.58 8.58H317a8.56 8.56 0 0 1-8.59-8.58z"/><path id="mrifC" d="M318.98 1462.74l-4.41 6.28a6.62 6.62 0 0 0-.67 6.36l4.8 11.19a2.28 2.28 0 0 0 4.22 0l4.8-11.2c.89-2.1.66-4.48-.67-6.35l-4.4-6.28c-.83-1.33-2.78-1.33-3.67 0z"/><path id="mrifD" d="M321.16 1470.42l3.47-4.95-1.91-2.73a2.3 2.3 0 0 0-3.78 0l-4.41 6.28a6.62 6.62 0 0 0-.66 6.36l4.8 11.19a2.28 2.28 0 0 0 4.2 0l.9-2.07-3.31-7.72a6.85 6.85 0 0 1 .7-6.36z"/><path id="mrifE" d="M320.83 1541.18l-24.85-24.85 24.85-24.85 24.85 24.85z"/><path id="mrifF" d="M327.05 1497.69l-6.2-6.24-24.85 24.88 24.85 24.85 6.2-6.2-18.65-18.65z"/><path id="mrifG" d="M308.4 1528.74v-24.85h24.85v24.85z"/><path id="mrifH" d="M308.4 1528.74h12.45l-12.45-12.4z"/><path id="mrifI" d="M308.4 1503.89v12.44l12.45-12.44z"/><path id="mrifJ" d="M314.26 1516.33a6.6 6.6 0 1 1 13.18 0 6.6 6.6 0 0 1-13.18 0z"/><path id="mrifK" d="M320.85 1516.33a6.62 6.62 0 0 1 3.31-5.73 6.58 6.58 0 1 0 0 11.39 6.45 6.45 0 0 1-3.31-5.66z"/><path id="mrifL" d="M297.87 1544.42l7.84 13.57a3.12 3.12 0 0 0 5.43 0l9.7-16.81h-16.26a8.59 8.59 0 0 0-6.7 3.24z"/><path id="mrifM" d="M297.87 1544.42l7.84 13.57a3.09 3.09 0 0 0 2.73 1.56v-9.79a8.6 8.6 0 0 1 8.59-8.58h-12.45a8.59 8.59 0 0 0-6.7 3.24z"/><path id="mrifN" d="M335.98 1557.99l7.84-13.57a8.53 8.53 0 0 0-6.7-3.24h-16.27l9.71 16.81a3.12 3.12 0 0 0 5.42 0z"/><path id="mrifO" d="M313.12 1564.43a7.72 7.72 0 1 1 15.45 0 7.72 7.72 0 0 1-15.45 0z"/><path id="mrifP" d="M320.85 1564.43a7.82 7.82 0 0 1 3.86-6.71 7.72 7.72 0 1 0 0 13.34 7.6 7.6 0 0 1-3.86-6.63z"/><path id="mrifQ" d="M308.25 1457.12a3.1 3.1 0 0 0-2.42.31 3.3 3.3 0 0 0-1.52 1.95 3.1 3.1 0 0 0 .31 2.42 3.35 3.35 0 0 0 1.91 1.52c.82.24 1.72.12 2.42-.31a3.35 3.35 0 0 0 1.52-1.91c.24-.82.12-1.72-.31-2.42a3.13 3.13 0 0 0-1.91-1.56z"/><path id="mrifR" d="M335.09 1457.12a3.1 3.1 0 0 0-2.42.31 3.3 3.3 0 0 0-1.52 1.95 3.1 3.1 0 0 0 .3 2.42 3.35 3.35 0 0 0 1.92 1.52c.82.24 1.72.12 2.42-.31a3.35 3.35 0 0 0 1.52-1.91c.23-.82.12-1.72-.31-2.42a2.94 2.94 0 0 0-1.91-1.56z"/><path id="mrifS" d="M321.7 1578.16a3.1 3.1 0 0 0-2.41.3 3.3 3.3 0 0 0-1.52 1.96 3.1 3.1 0 0 0 .3 2.42 3.35 3.35 0 0 0 1.92 1.52c.82.23 1.72.12 2.42-.31a3.35 3.35 0 0 0 1.52-1.91c.23-.82.12-1.72-.31-2.42a3.05 3.05 0 0 0-1.91-1.56z"/></defs><g><g transform="translate(-221 -1432)"><g><use fill="#57e5d0" xlink:href="#mrifa"/></g><g><g><use fill="#28c6af" xlink:href="#mrifb"/></g><g><use fill="#28c6af" xlink:href="#mrifc"/></g></g><g><use fill="#57e5d0" xlink:href="#mrifd"/></g><g><use fill="#28c6af" xlink:href="#mrife"/></g><g><use fill="#12b59e" xlink:href="#mriff"/></g><g><use fill="#00ddc2" xlink:href="#mrifg"/></g><g><use fill="#12b59e" xlink:href="#mrifh"/></g><g><use fill="#ffe477" xlink:href="#mrifi"/></g><g><use fill="#57e5d0" xlink:href="#mrifj"/></g><g><use fill="#28c6af" xlink:href="#mrifk"/></g><g><use fill="#57e5d0" xlink:href="#mrifl"/></g><g><use fill="#28c6af" xlink:href="#mrifm"/></g><g><use fill="#00ddc2" xlink:href="#mrifn"/></g><g><use fill="#12b59e" xlink:href="#mrifo"/></g><g><use fill="#28c6af" xlink:href="#mrifp"/></g><g><use fill="#12b59e" xlink:href="#mrifq"/></g><g><use fill="#ffe477" xlink:href="#mrifr"/></g><g><use fill="#ff5c5c" xlink:href="#mrifs"/></g><g><use fill="#f33" xlink:href="#mrift"/></g><g><use fill="#ff5c5c" xlink:href="#mrifu"/></g><g><use fill="#f33" xlink:href="#mrifv"/></g><g><use fill="#ffdaaa" xlink:href="#mrifw"/></g><g><g><use fill="#ffc477" xlink:href="#mrifx"/></g><g><use fill="#ffc477" xlink:href="#mrify"/></g></g><g><use fill="#ffa733" xlink:href="#mrifz"/></g><g><use fill="#ffdaaa" xlink:href="#mrifA"/></g><g><use fill="#ffc477" xlink:href="#mrifB"/></g><g><use fill="#ff5c5c" xlink:href="#mrifC"/></g><g><use fill="#f33" xlink:href="#mrifD"/></g><g><use fill="#ff5c5c" xlink:href="#mrifE"/></g><g><use fill="#f33" xlink:href="#mrifF"/></g><g><use fill="#57e5d0" xlink:href="#mrifG"/></g><g><g><use fill="#28c6af" xlink:href="#mrifH"/></g><g><use fill="#28c6af" xlink:href="#mrifI"/></g></g><g><use fill="#003f8a" xlink:href="#mrifJ"/></g><g><use fill="#003068" xlink:href="#mrifK"/></g><g><use fill="#57e5d0" xlink:href="#mrifL"/></g><g><use fill="#28c6af" xlink:href="#mrifM"/></g><g><use fill="#57e5d0" xlink:href="#mrifN"/></g><g><use fill="#ff5c5c" xlink:href="#mrifO"/></g><g><use fill="#f33" xlink:href="#mrifP"/></g><g><g><use fill="#003f8a" xlink:href="#mrifQ"/></g><g><use fill="#003f8a" xlink:href="#mrifR"/></g><g><use fill="#003f8a" xlink:href="#mrifS"/></g></g></g></g></svg>