<svg xmlns="http://www.w3.org/2000/svg" xmlns:xlink="http://www.w3.org/1999/xlink" width="147" height="166" viewBox="0 0 147 166"><defs><path id="igcja" d="M607.32 1542a62.94 62.94 0 0 1-9.85-33.86 63.21 63.21 0 0 1 44.61-60.4l-4.57 7.16 8.14 5.21 13.36-20.92-20.92-13.36-5.21 8.14 6.85 4.38a72.93 72.93 0 0 0-51.92 69.79 72.85 72.85 0 0 0 40.85 65.41l4.25-8.7a62.87 62.87 0 0 1-25.6-22.85z"/><path id="igcjb" d="M733.47 1508.33a72.85 72.85 0 0 0-40.85-65.41l-4.25 8.7a63.1 63.1 0 0 1 25.56 22.88 62.94 62.94 0 0 1 9.85 33.86 63.21 63.21 0 0 1-44.62 60.4l4.58-7.16-8.15-5.21-13.36 20.92 20.93 13.36 5.21-8.14-6.86-4.38a72.98 72.98 0 0 0 51.96-69.82z"/><path id="igcjc" d="M690.27 1500.06h-27.04l4.02-42.36-36.27 59.45h26.81l-4.7 41.62z"/></defs><g><g transform="translate(-587 -1425)"><g><use fill="#c3ea21" xlink:href="#igcja"/></g><g><use fill="#8adb53" xlink:href="#igcjb"/></g><g><use fill="#fbda35" xlink:href="#igcjc"/></g></g></g></svg>
