<svg xmlns="http://www.w3.org/2000/svg" xmlns:xlink="http://www.w3.org/1999/xlink" width="150" height="150" viewBox="0 0 150 150"><defs><path id="e097a" d="M1321.35 1516.93a74.68 74.68 0 1 1-149.36-.01 74.68 74.68 0 0 1 149.36 0z"/><path id="e097b" d="M1321.35 1516.92a74.32 74.32 0 0 0-12-40.61s-4.26 6.23-3.46 10.2c.8 4.02 5.5 4.3 5.03 7.26-.47 2.95-3.94-.84-8.2 6.9-4.27 7.72-2.12 18.4 4 19.2 6.1.77 14.63-2.95 14.63-2.95z"/><path id="e097c" d="M1266.3 1444.84a74.4 74.4 0 0 1 23.87 11.38s-8.64-1.43-11.92 1.49c-3.28 2.92-8.06 9.88-11.92 0-3.9-9.84-.04-12.87-.04-12.87z"/><path id="e097d" d="M1190.52 1467.7a74.45 74.45 0 0 1 56.16-25.45s-5.07 3.06 4.52 8.28c9.59 5.21 5.21 7.58 3.2 9.19-2 1.6-5.46-3.21-7.73-6.42-2.26-3.21-12-8.13-19.47-5.47-7.47 2.66-13.85 4.63-12.8 7.1 1.06 2.49 13.86-2.32 18.67-2.03 4.82.25 3.21 3.2-1.34 6.67-4.53 3.46-5.07 7.73-.26 10.4 4.81 2.65 10.68 2.94 12 1.34 1.35-1.6-2.41-12 6.67-7.47 9.08 4.52 16.55 7.22 9.08 13.85-7.48 6.67-16 14.15-16.26 18.41-.26 4.27 2.66 7.74 1.05 7.99-1.6.26-3.06-1.75-4.12-3.2-1.05-1.47-6.01-2.01-8.38-1.07-2.41.95-6.93 4.53-4.42 7.99 2.56 3.46 6.02 1.86 9.48 3.46 3.47 1.6 6.71 7.7 6.06 9.08-.66 1.39-3.61-.36-6.06-5.07-2.4-4.7-6.96-1.6-10.13-2.4-3.21-.8-5.58-1.35-8.79-6.93-3.2-5.62-9.8-7.18-12.54-10.4-7.8-9.22-7.22-16.22-8.83-19.43-1.6-3.2-5.76-8.42-5.76-8.42z"/><path id="e097e" d="M1253.86 1517.98s7.98.8 12 4.27c4 3.46 4.52 4.81 10.68 6.12 6.12 1.35 8.79 4.82 4.81 11.45-4.01 6.68-11.2 17.32-14.66 20.53-3.46 3.21-7.73 5.87-9.33 11.2-1.6 5.32-2.15 8.53 1.35 10.68 0 0-1.86 4.52-6.13-1.35-4.26-5.87-.8-12.8 0-16.8.8-4.02 2.92-16.02 1.6-18.93-1.34-2.96-7.47-4.82-9.07-10.94-1.64-6.1 1.16-18.01 8.75-16.23z"/></defs><g><g transform="translate(-1172 -1442)"><use fill="#2d404e" xlink:href="#e097a"/></g><g transform="translate(-1172 -1442)"><use fill="#48b19b" xlink:href="#e097b"/></g><g transform="translate(-1172 -1442)"><use fill="#48b19b" xlink:href="#e097c"/></g><g transform="translate(-1172 -1442)"><use fill="#48b19b" xlink:href="#e097d"/></g><g transform="translate(-1172 -1442)"><use fill="#48b19b" xlink:href="#e097e"/></g></g></svg>