<svg xmlns="http://www.w3.org/2000/svg" xmlns:xlink="http://www.w3.org/1999/xlink" width="157" height="155" viewBox="0 0 157 155"><defs><path id="6j4na" d="M1581.09 1450.37h70.63v142.5h-138.95v-142.5h19.14"/><path id="6j4nb" d="M1581.09 1450.37h70.63v14.67h-138.95v-14.67h19.14"/><path id="6j4nc" d="M1562.17 1455.93H1657.96c1.4 0 2.54-1.13 2.54-2.53v-6.02c0-1.41-1.14-2.54-2.54-2.54H1506.54a2.53 2.53 0 0 0-2.54 2.54v6.02c0 1.4 1.13 2.53 2.54 2.53h39.95"/><path id="6j4nd" d="M1600.13 1537.76v-28.43h15.56v28.43z"/><path id="6j4ne" d="M1548.8 1537.76v-28.43h15.57v28.43z"/><path id="6j4nf" d="M1548.8 1499.67v-28.42h15.57v28.42z"/><path id="6j4ng" d="M1523.13 1499.67v-28.42h15.56v28.42z"/><path id="6j4nh" d="M1574.45 1499.67v-28.42h15.56v28.42z"/><path id="6j4ni" d="M1625.8 1537.76v-28.43h15.56v28.43z"/><path id="6j4nj" d="M1574.45 1537.76v-28.43h15.56v28.43z"/><path id="6j4nk" d="M1523.13 1537.76v-28.43h15.56v28.43z"/><path id="6j4nl" d="M1548.8 1575.84v-28.42h15.57v28.42z"/><path id="6j4nm" d="M1574.45 1575.84v-28.42h15.56v28.42z"/><path id="6j4nn" d="M1523.13 1575.84v-28.42h15.56v28.42z"/><path id="6j4no" d="M1600.13 1499.67v-28.42h15.56v28.42z"/><path id="6j4np" d="M1625.8 1499.67v-28.42h15.56v28.42z"/><path id="6j4nq" d="M1602.05 1535.86h11.74v-24.6h-11.74zm13.64 3.82h-15.56a1.92 1.92 0 0 1-1.93-1.92v-28.43c0-1.07.86-1.92 1.93-1.92h15.56c1.07 0 1.92.85 1.92 1.92v28.43c0 1.07-.85 1.92-1.92 1.92z"/><path id="6j4nr" d="M1550.7 1535.86h11.74v-24.6h-11.74zm13.67 3.82h-15.56a1.92 1.92 0 0 1-1.93-1.92v-28.43c0-1.07.86-1.92 1.93-1.92h15.56c1.07 0 1.92.85 1.92 1.92v28.43c0 1.07-.88 1.92-1.92 1.92z"/><path id="6j4ns" d="M1627.73 1535.86h11.74v-24.6h-11.74zm13.63 3.82h-15.56a1.92 1.92 0 0 1-1.92-1.92v-28.43c0-1.07.85-1.92 1.92-1.92h15.56c1.07 0 1.93.85 1.93 1.92v28.43c0 1.07-.86 1.92-1.93 1.92z"/><path id="6j4nt" d="M1576.38 1535.86h11.74v-24.6h-11.74zm13.66 3.82h-15.56a1.92 1.92 0 0 1-1.92-1.92v-28.43c0-1.07.85-1.92 1.92-1.92h15.56c1.07 0 1.93.85 1.93 1.92v28.43a1.96 1.96 0 0 1-1.93 1.92z"/><path id="6j4nu" d="M1525.03 1535.86h11.74v-24.6h-11.74zm13.66 3.82h-15.56a1.92 1.92 0 0 1-1.92-1.92v-28.43c0-1.07.85-1.92 1.92-1.92h15.56c1.07 0 1.93.85 1.93 1.92v28.43c0 1.07-.86 1.92-1.93 1.92z"/><path id="6j4nv" d="M1641.36 1547.42h-41.23v39.88l41.23 3.21z"/><path id="6j4nw" d="M1643.29 1588.9h-3.82v-39.56h-37.42v39.55h-3.82v-41.47c0-1.07.86-1.93 1.93-1.93h41.23c1.07 0 1.93.86 1.93 1.93z"/><path id="6j4nx" d="M1550.7 1573.95h11.74v-24.6h-11.74zm13.67 3.82h-15.56a1.92 1.92 0 0 1-1.93-1.93v-28.42c0-1.07.86-1.93 1.93-1.93h15.56c1.07 0 1.92.86 1.92 1.93v28.42c0 1.07-.88 1.93-1.92 1.93z"/><path id="6j4ny" d="M1576.38 1573.95h11.74v-24.6h-11.74zm13.66 3.82h-15.56a1.92 1.92 0 0 1-1.92-1.93v-28.42c0-1.07.85-1.93 1.92-1.93h15.56c1.07 0 1.93.86 1.93 1.93v28.42a1.96 1.96 0 0 1-1.93 1.93z"/><path id="6j4nz" d="M1525.03 1573.95h11.74v-24.6h-11.74zm13.66 3.82h-15.56a1.92 1.92 0 0 1-1.92-1.93v-28.42c0-1.07.85-1.93 1.92-1.93h15.56c1.07 0 1.93.86 1.93 1.93v28.42c0 1.07-.86 1.93-1.93 1.93z"/><path id="6j4nA" d="M1602.05 1497.78h11.74v-24.6h-11.74zm13.64 3.82h-15.56a1.92 1.92 0 0 1-1.93-1.93v-28.42c0-1.07.86-1.93 1.93-1.93h15.56c1.07 0 1.92.86 1.92 1.93v28.42c0 1.07-.85 1.93-1.92 1.93z"/><path id="6j4nB" d="M1627.73 1497.78h11.74v-24.6h-11.74zm13.63 3.82h-15.56a1.92 1.92 0 0 1-1.92-1.93v-28.42c0-1.07.85-1.93 1.92-1.93h15.56c1.07 0 1.93.86 1.93 1.93v28.42c0 1.07-.86 1.93-1.93 1.93z"/><path id="6j4nC" d="M1600.13 1559.06v-3.82h41.23v3.82z"/><path id="6j4nD" d="M1618.83 1590.51v-33.34h3.83v33.34z"/><path id="6j4nE" d="M1548.8 1558.42v-3.82h15.57v3.82z"/><path id="6j4nF" d="M1590.04 1558.45h-15.56v-3.82h13.67v-7.18h3.82v9.1a1.95 1.95 0 0 1-1.93 1.9z"/><path id="6j4nG" d="M1523.13 1558.42v-3.82h15.56v3.82z"/><path id="6j4nH" d="M1641.36 1520.37h-15.56v-3.82h13.64v-7.22h3.82v9.11a1.87 1.87 0 0 1-1.9 1.93z"/><path id="6j4nI" d="M1574.45 1520.37v-3.82h15.56v3.82z"/><path id="6j4nJ" d="M1523.13 1520.37v-3.82h15.56v3.82z"/><path id="6j4nK" d="M1548.8 1520.37v-3.82h15.57v3.82z"/><path id="6j4nL" d="M1600.13 1520.37v-3.82h15.56v3.82z"/><path id="6j4nM" d="M1641.36 1482.28h-15.56v-3.82h13.64v-7.21h3.82v9.1a1.87 1.87 0 0 1-1.9 1.93z"/><path id="6j4nN" d="M1600.13 1482.28v-3.82h15.56v3.82z"/><path id="6j4nO" d="M1576.38 1497.78h11.74v-24.6h-11.74zm13.66 3.82h-15.56a1.92 1.92 0 0 1-1.92-1.93v-28.42c0-1.07.85-1.93 1.92-1.93h15.56c1.07 0 1.93.86 1.93 1.93v28.42a1.96 1.96 0 0 1-1.93 1.93z"/><path id="6j4nP" d="M1574.45 1482.28v-3.82h15.56v3.82z"/><path id="6j4nQ" d="M1550.7 1497.78h11.74v-24.6h-11.74zm13.67 3.82h-15.56a1.92 1.92 0 0 1-1.93-1.93v-28.42c0-1.07.86-1.93 1.93-1.93h15.56c1.07 0 1.92.86 1.92 1.93v28.42c0 1.07-.88 1.93-1.92 1.93z"/><path id="6j4nR" d="M1548.8 1482.28v-3.82h15.57v3.82z"/><path id="6j4nS" d="M1525.03 1497.78h11.74v-24.6h-11.74zm13.66 3.82h-15.56a1.92 1.92 0 0 1-1.92-1.93v-28.42c0-1.07.85-1.93 1.92-1.93h15.56c1.07 0 1.93.86 1.93 1.93v28.42c0 1.07-.86 1.93-1.93 1.93z"/><path id="6j4nT" d="M1523.13 1482.28v-3.82h15.56v3.82z"/><path id="6j4nU" d="M1655.82 1587.3h-147.14a4.7 4.7 0 0 0-4.68 4.68v6.42h156.5v-6.42a4.7 4.7 0 0 0-4.68-4.68z"/></defs><g><g transform="translate(-1504 -1444)"><g><use fill="#ecedf2" xlink:href="#6j4na"/></g><g><use fill="#c6cad5" xlink:href="#6j4nb"/></g><g><use fill="#525c66" xlink:href="#6j4nc"/></g><g><g><use fill="#a0d9f2" xlink:href="#6j4nd"/></g><g><use fill="#a0d9f2" xlink:href="#6j4ne"/></g><g><use fill="#a0d9f2" xlink:href="#6j4nf"/></g><g><use fill="#a0d9f2" xlink:href="#6j4ng"/></g><g><use fill="#a0d9f2" xlink:href="#6j4nh"/></g><g><use fill="#a0d9f2" xlink:href="#6j4ni"/></g><g><use fill="#a0d9f2" xlink:href="#6j4nj"/></g><g><use fill="#a0d9f2" xlink:href="#6j4nk"/></g><g><use fill="#a0d9f2" xlink:href="#6j4nl"/></g><g><use fill="#a0d9f2" xlink:href="#6j4nm"/></g><g><use fill="#a0d9f2" xlink:href="#6j4nn"/></g><g><use fill="#a0d9f2" xlink:href="#6j4no"/></g><g><use fill="#a0d9f2" xlink:href="#6j4np"/></g></g><g><g><use fill="#fff" xlink:href="#6j4nq"/></g><g><use fill="#fff" xlink:href="#6j4nr"/></g><g><use fill="#fff" xlink:href="#6j4ns"/></g><g><use fill="#fff" xlink:href="#6j4nt"/></g><g><use fill="#fff" xlink:href="#6j4nu"/></g></g><g><use fill="#a0d9f2" xlink:href="#6j4nv"/></g><g><g><use fill="#fff" xlink:href="#6j4nw"/></g><g><use fill="#fff" xlink:href="#6j4nx"/></g><g><use fill="#fff" xlink:href="#6j4ny"/></g><g><use fill="#fff" xlink:href="#6j4nz"/></g><g><use fill="#fff" xlink:href="#6j4nA"/></g><g><use fill="#fff" xlink:href="#6j4nB"/></g><g><use fill="#fff" xlink:href="#6j4nC"/></g><g><use fill="#fff" xlink:href="#6j4nD"/></g><g><use fill="#fff" xlink:href="#6j4nE"/></g><g><use fill="#fff" xlink:href="#6j4nF"/></g><g><use fill="#fff" xlink:href="#6j4nG"/></g><g><use fill="#fff" xlink:href="#6j4nH"/></g><g><use fill="#fff" xlink:href="#6j4nI"/></g><g><use fill="#fff" xlink:href="#6j4nJ"/></g><g><use fill="#fff" xlink:href="#6j4nK"/></g><g><use fill="#fff" xlink:href="#6j4nL"/></g><g><use fill="#fff" xlink:href="#6j4nM"/></g><g><use fill="#fff" xlink:href="#6j4nN"/></g><g><use fill="#fff" xlink:href="#6j4nO"/></g><g><use fill="#fff" xlink:href="#6j4nP"/></g><g><use fill="#fff" xlink:href="#6j4nQ"/></g><g><use fill="#fff" xlink:href="#6j4nR"/></g><g><use fill="#fff" xlink:href="#6j4nS"/></g><g><use fill="#fff" xlink:href="#6j4nT"/></g></g><g><use fill="#423e3e" xlink:href="#6j4nU"/></g></g></g></svg>