<svg xmlns="http://www.w3.org/2000/svg" xmlns:xlink="http://www.w3.org/1999/xlink" width="98" height="157" viewBox="0 0 98 157"><defs><path id="lyufa" d="M967.63 1595.43a40.57 40.57 0 0 1-40.45-40.45v-59.33c0-16.52-6.4-26.97-10.79-26.97v-10.78c12.14 0 21.58 16.18 21.58 37.75v59.33a29.5 29.5 0 0 0 29.66 29.66 29.5 29.5 0 0 0 29.67-29.66v-2.7h-16.18l26.96-16.85v19.55a40.57 40.57 0 0 1-40.45 40.45z"/><path id="lyufb" d="M942.35 1514.19c.34 0 .67.34 1.01.34 1.01 0 2.02-.68 2.36-1.69.67-1.35-.34-3.03-1.68-3.37l-14.5-5.4v-5.05l12.47 4.72c.34 0 .68.34 1.01.34 1.02 0 2.03-.68 2.36-1.69.68-1.35-.33-3.03-1.68-3.37l-14.5-5.4v-53.93h-4.72v51.91l-1.68-.67c-1.35-.67-3.04.34-3.37 1.69-.68 1.34.33 3.03 1.68 3.37l3.37 1v4.73l-1.68-.68c-1.35-.67-3.04.34-3.37 1.69-.68 1.35.33 3.03 1.68 3.37l3.37 1.68v5.06l-1.68-.67c-1.35-.68-3.04.33-3.37 1.68-.68 1.35.33 3.04 1.68 3.37l3.37 1.35v5.06l-1.68-.68c-1.35-.67-3.04.34-3.37 1.69-.68 1.35.33 3.03 1.68 3.37l3.37 1.35a11.2 11.2 0 0 1-10.78 9.44 2.9 2.9 0 0 0-2.7 2.7 2.9 2.9 0 0 0 2.7 2.7c7.75 0 14.5-5.74 15.84-13.16l12.81 4.72c.34 0 .67.34 1.01.34 1.01 0 2.02-.67 2.36-1.68.67-1.35-.34-3.04-1.68-3.38l-14.16-5.73v-5.05l12.47 5.05h1.01c1.01 0 2.02-.67 2.36-1.68.67-1.35-.34-3.04-1.68-3.37l-14.5-5.4v-5.05z"/></defs><g><g clip-path="url(#clip-a41b884c-b8c8-49b4-8d37-c4960533f2b1)" transform="translate(-911 -1439)"><use fill="#c7cac7" xlink:href="#lyufa"/></g><g transform="translate(-911 -1439)"><use fill="#556080" xlink:href="#lyufb"/></g></g></svg>